<?xml version="1.0" encoding="UTF-8"?>
<svg id="Layer_1" xmlns="http://www.w3.org/2000/svg" version="1.1" viewBox="0 0 133.88 449.98">
  <!-- Generator: Adobe Illustrator 29.8.4, SVG Export Plug-In . SVG Version: 2.1.1 Build 6)  -->
  <defs>
    <style>
      .st0 {
        stroke-width: 2.25px;
      }

      .st0, .st1, .st2, .st3 {
        fill: #b3b3b3;
      }

      .st0, .st1, .st3 {
        stroke: #b4b4b4;
        stroke-linecap: round;
      }

      .st4, .st2 {
        isolation: isolate;
      }

      .st1 {
        stroke-width: 1.45px;
      }

      .st2 {
        font-family: ArialMT, Arial;
        font-size: 20px;
      }

      .st3 {
        stroke-width: 3.5px;
      }
    </style>
  </defs>
  <path class="st0" d="M65.06,9.88h34.46"/>
  <path class="st0" d="M65.06,61.53h34.46"/>
  <path class="st0" d="M65.06,229.39h34.46"/>
  <path class="st0" d="M65.06,281.04h34.46"/>
  <path class="st0" d="M65.06,332.69h34.46"/>
  <path class="st0" d="M65.06,384.34h34.46"/>
  <path class="st0" d="M65.06,435.99h34.46"/>
  <path class="st1" d="M86.38,22.79h13.55"/>
  <path class="st1" d="M86.38,35.7h13.55"/>
  <path class="st1" d="M86.38,48.61h13.55"/>
  <path class="st1" d="M86.38,74.44h13.55"/>
  <path class="st1" d="M86.38,87.35h13.55"/>
  <path class="st1" d="M86.38,100.26h13.55"/>
  <path class="st1" d="M86.38,242.3h13.55"/>
  <path class="st1" d="M86.38,255.21h13.55"/>
  <path class="st1" d="M86.38,268.13h13.55"/>
  <path class="st1" d="M86.38,293.95h13.55"/>
  <path class="st1" d="M86.38,306.86h13.55"/>
  <path class="st1" d="M86.38,319.78h13.55"/>
  <path class="st1" d="M86.38,345.6h13.55"/>
  <path class="st1" d="M86.38,358.51h13.55"/>
  <path class="st1" d="M86.38,371.43h13.55"/>
  <path class="st1" d="M86.38,397.25h13.55"/>
  <path class="st1" d="M86.38,410.16h13.55"/>
  <path class="st0" d="M65.06,164.83h34.46"/>
  <path class="st1" d="M86.38,190.65h13.55"/>
  <path class="st1" d="M86.38,203.56h13.55"/>
  <path class="st1" d="M86.38,216.48h13.55"/>
  <path class="st1" d="M86.38,126.09h13.55"/>
  <path class="st1" d="M86.38,139h13.55"/>
  <path class="st1" d="M86.38,151.91h13.55"/>
  <g class="st4">
    <text class="st2" transform="translate(111.18 443.48)"><tspan x="0" y="0">60</tspan></text>
  </g>
  <g class="st4">
    <text class="st2" transform="translate(111.15 391.6)"><tspan x="0" y="0">50</tspan></text>
  </g>
  <g class="st4">
    <text class="st2" transform="translate(111.63 339.99)"><tspan x="0" y="0">40</tspan></text>
  </g>
  <g class="st4">
    <text class="st2" transform="translate(110.96 288.31)"><tspan x="0" y="0">30</tspan></text>
  </g>
  <g class="st4">
    <text class="st2" transform="translate(111.14 236.66)"><tspan x="0" y="0">20</tspan></text>
  </g>
  <g class="st4">
    <text class="st2" transform="translate(109.96 172.1)"><tspan x="0" y="0">10</tspan></text>
  </g>
  <g class="st4">
    <text class="st2" transform="translate(116.96 120.46)"><tspan x="0" y="0">0</tspan></text>
  </g>
  <g class="st4">
    <text class="st2" transform="translate(116.96 68.73)"><tspan x="0" y="0">5</tspan></text>
  </g>
  <g class="st4">
    <text class="st2" transform="translate(109.96 17.16)"><tspan x="0" y="0">10</tspan></text>
  </g>
  <path class="st1" d="M86.89,423.08h13.55"/>
  <g>
    <path class="st0" d="M36.09,9.98H1.63"/>
    <path class="st0" d="M36.09,61.63H1.63"/>
    <path class="st3" d="M36.72,113.28H2.26"/>
    <path class="st0" d="M36.09,229.5H1.63"/>
    <path class="st0" d="M36.09,281.15H1.63"/>
    <path class="st0" d="M36.09,332.8H1.63"/>
    <path class="st0" d="M36.09,384.44H1.63"/>
    <path class="st0" d="M36.09,436.09H1.63"/>
    <path class="st1" d="M14.78,22.9H1.23"/>
    <path class="st1" d="M14.78,35.81H1.23"/>
    <path class="st1" d="M14.78,48.72H1.23"/>
    <path class="st1" d="M14.78,74.55H1.23"/>
    <path class="st1" d="M14.78,87.46H1.23"/>
    <path class="st1" d="M14.78,100.37H1.23"/>
    <path class="st1" d="M14.78,242.41H1.23"/>
    <path class="st1" d="M14.78,255.32H1.23"/>
    <path class="st1" d="M14.78,268.23H1.23"/>
    <path class="st1" d="M14.78,294.06H1.23"/>
    <path class="st1" d="M14.78,306.97H1.23"/>
    <path class="st1" d="M14.78,319.88H1.23"/>
    <path class="st1" d="M14.78,345.71H1.23"/>
    <path class="st1" d="M14.78,358.62H1.23"/>
    <path class="st1" d="M14.78,371.53H1.23"/>
    <path class="st1" d="M14.78,397.36H1.23"/>
    <path class="st1" d="M14.78,410.27H1.23"/>
    <path class="st0" d="M36.09,164.93H1.63"/>
    <path class="st1" d="M14.78,190.76H1.23"/>
    <path class="st1" d="M14.78,203.67H1.23"/>
    <path class="st1" d="M14.78,216.58H1.23"/>
    <path class="st1" d="M14.78,126.2H1.23"/>
    <path class="st1" d="M14.78,139.11H1.23"/>
    <path class="st1" d="M14.78,152.02H1.23"/>
    <path class="st1" d="M14.27,423.18H.72"/>
  </g>
</svg>